/* XPM */
static char * C:\Users\Admin\Desktop\Bulwark_master\Bulwark_master\share\pixmaps\bitcoin32_xpm[] = {
"32 32 22 1",
" 	c None",
".	c #356098",
"+	c #3F70B5",
"@	c #4173BA",
"#	c #284C75",
"$	c #2A4F7A",
"%	c #4071B7",
"&	c #2C517D",
"*	c #264A70",
"=	c #3B69A9",
"-	c #25476B",
";	c #3F70B6",
">	c #356097",
",	c #36619B",
"'	c #3B6AAA",
")	c #3F71B6",
"!	c #3E6EB1",
"~	c #36629C",
"{	c #3C6BAD",
"]	c #4071B6",
"^	c #4072B9",
"/	c #4172B9",
"                                ",
"                                ",
"                .               ",
"              +@.#$             ",
"             ++@.#$$            ",
"        +%&* %+@.#$$ $$$$       ",
"   +%=- %;>,')+@.#$$$$$$$ $$$$  ",
"   +;!~{]+^/%++@.#$$$$$$$$$$$$  ",
"   ++;^)+++++++@.#$$$$$$$$$$$$  ",
"   ++++++++++++@.#$$$$$$$$$$$$  ",
"   ++++++++++++@.#$$$$$$$$$$$$  ",
"   ++++++++++++@.#$$$$$$$$$$$$  ",
"   ++++++++++++@.#$$$$$$$$$$$$  ",
"   ++++++++++++@.#$$$$$$$$$$$$  ",
"   ++++++++++++@.#$$$$$$$$$$$$  ",
"   ++++++++++++@.#$$$$$$$$$$$$  ",
"   ++++++++++++@.#$$$$$$$$$$$$  ",
"   ++++++++++++@.#$$$$$$$$$$$$  ",
"   ++++++++++++@.#$$$$$$$$$$$$  ",
"   ++++++++++++@.#$$$$$$$$$$$$  ",
"   ++++++++++++@.#$$$$$$$$$$$$  ",
"   ++++++++++++@.#$$$$$$$$$$$$  ",
"   ++++++++++++@.#$$$$$$$$$$$$  ",
"   ++++++++++++@.#$$$$$$$$$$$$  ",
"     ++++++++++@.#$$$$$$$$$$    ",
"      +++++++++@.#$$$$$$$$$     ",
"        +++++++@.#$$$$$$$       ",
"          +++++@.#$$$$$         ",
"           ++++@.#$$$$          ",
"             ++@.#$$            ",
"               @.#              ",
"                .               "};
