/* XPM */
static char * C:\Users\Admin\Desktop\Bulwark_master\Bulwark_master\share\pixmaps\bitcoin64_xpm[] = {
"48 48 40 1",
" 	c None",
".	c #3C6CAF",
"+	c #2D5381",
"@	c #3F70B5",
"#	c #3F71B6",
"$	c #3E6EB2",
"%	c #2B517E",
"&	c #2A4E79",
"*	c #2A4F7A",
"=	c #3E6FB2",
"-	c #2B507E",
";	c #3F70B6",
">	c #2A4F7B",
",	c #2A4F79",
"'	c #294D77",
")	c #284C75",
"!	c #284D75",
"~	c #4071B7",
"{	c #4072B8",
"]	c #2D5482",
"^	c #2A507B",
"/	c #2C5382",
"(	c #315A8F",
"_	c #35619B",
":	c #3E6FB4",
"<	c #4173BA",
"[	c #2A507C",
"}	c #264970",
"|	c #3F70B4",
"1	c #3E70B4",
"2	c #4073B9",
"3	c #4274BD",
"4	c #4173BC",
"5	c #3968A6",
"6	c #3B6AA9",
"7	c #3E6DAF",
"8	c #4072B9",
"9	c #4071B8",
"0	c #3D6DB0",
"a	c #2C5280",
"                                                ",
"                       .+                       ",
"                     @#$%&*                     ",
"                   @@@#=-&***                   ",
"                   @@@#=-&***                   ",
"           @;$>,   @@@#=-&***   *****           ",
"          @@;$')!  @@@#=-&***  *******          ",
"    @~{]   @;$^/(_:;@@#=-&***********   *****   ",
"   @@~<[}  #@|1234;@@@#=-&************ ******   ",
"   @@;;567@@@@{~@|@@@@#=-&*******************   ",
"   @@@@{89@@@@@@@@@@@@#=-&*******************   ",
"   @@@@@@@@@@@@@@@@@@@#=-&*******************   ",
"   @@@@@@@@@@@@@@@@@@@#=-&*******************   ",
"   @@@@@@@@@@@@@@@@@@@#=-&*******************   ",
"   @@@@@@@@@@@@@@@@@@@#=-&*******************   ",
"   @@@@@@@@@@@@@@@@@@@#$-&*******************   ",
"   @@@@@@@@@@@@@@@@@@@#=-&*******************   ",
"   @@@@@@@@@@@@@@@@@@@#=-&*******************   ",
"   @@@@@@@@@@@@@@@@@@@#=-&*******************   ",
"   @@@@@@@@@@@@@@@@@@@#=-&*******************   ",
"   @@@@@@@@@@@@@@@@@@@#=-&*******************   ",
"   @@@@@@@@@@@@@@@@@@@#=-&*******************   ",
"   @@@@@@@@@@@@@@@@@@@#=-&*******************   ",
"   @@@@@@@@@@@@@@@@@@@#=-&*******************   ",
"   @@@@@@@@@@@@@@@@@@@#=-&*******************   ",
"   @@@@@@@@@@@@@@@@@@@#=-&*******************   ",
"   @@@@@@@@@@@@@@@@@@@#=-&*******************   ",
"   @@@@@@@@@@@@@@@@@@@#=-&*******************   ",
"   @@@@@@@@@@@@@@@@@@@#=-&*******************   ",
"   @@@@@@@@@@@@@@@@@@@#=-&*******************   ",
"   @@@@@@@@@@@@@@@@@@@#=-&*******************   ",
"   @@@@@@@@@@@@@@@@@@@#=-&*******************   ",
"   @@@@@@@@@@@@@@@@@@@#=-&*******************   ",
"   @@@@@@@@@@@@@@@@@@@#=-&*******************   ",
"   @@@@@@@@@@@@@@@@@@@#=-&*******************   ",
"    @@@@@@@@@@@@@@@@@@#=-&******************    ",
"      @@@@@@@@@@@@@@@@#=-&****************      ",
"       @@@@@@@@@@@@@@@#=-&***************       ",
"         @@@@@@@@@@@@@#=-&*************         ",
"          @@@@@@@@@@@@#=-&************          ",
"            @@@@@@@@@@#=-&**********            ",
"              @@@@@@@@#=-&********              ",
"               @@@@@@@#=-&*******               ",
"                 @@@@@#=-&*****                 ",
"                   @@@#=-&***                   ",
"                    @@#=-&**                    ",
"                      #$%&                      ",
"                       0a                       "};
