/* XPM */
static char * C:\Users\Admin\Desktop\Bulwark_master\Bulwark_master\share\pixmaps\bitcoin128_xpm[] = {
"128 128 35 1",
" 	c None",
".	c #356098",
"+	c #3F70B5",
"@	c #4073B9",
"#	c #294C76",
"$	c #2A4F7A",
"%	c #4072B8",
"&	c #284C75",
"*	c #284C74",
"=	c #4173BA",
"-	c #4172B9",
";	c #294E78",
">	c #2A4F79",
",	c #2A4E79",
"'	c #294D77",
")	c #3F70B6",
"!	c #284C76",
"~	c #284D77",
"{	c #2A4E78",
"]	c #3C6BAC",
"^	c #25486D",
"/	c #4173BC",
"(	c #4072B9",
"_	c #4071B7",
":	c #3E6FB3",
"<	c #4173BB",
"[	c #3F71B7",
"}	c #4073BA",
"|	c #284D76",
"1	c #284B74",
"2	c #2B507C",
"3	c #3E6FB4",
"4	c #4072B7",
"5	c #4174BC",
"6	c #3F71B6",
"                                                                                                                                ",
"                                                                                                                                ",
"                                                                .                                                               ",
"                                                             ++@.#$$                                                            ",
"                                                         ++++++@.#$$$$$$                                                        ",
"                                                      +++++++++@.#$$$$$$$$$                                                     ",
"                                                   ++++++++++++@.#$$$$$$$$$$$$                                                  ",
"                                                  +++++++++++++@.#$$$$$$$$$$$$$                                                 ",
"                                                  +++++++++++++@.#$$$$$$$$$$$$$                                                 ",
"                                                  +++++++++++++@.#$$$$$$$$$$$$$                                                 ",
"                                                  +++++++++++++@.#$$$$$$$$$$$$$                                                 ",
"                                 +++% &           +++++++++++++@.#$$$$$$$$$$$$$           $ $$$$                                ",
"                              ++++++% *$$         +++++++++++++@.#$$$$$$$$$$$$$         $$$ $$$$$$$                             ",
"                            ++++++++% *$$$        +++++++++++++@.#$$$$$$$$$$$$$        $$$$ $$$$$$$$$                           ",
"                            ++++++++% *$$$$$      +++++++++++++@.#$$$$$$$$$$$$$      $$$$$$ $$$$$$$$$                           ",
"                            ++++++++% *$$$$$$     +++++++++++++@.#$$$$$$$$$$$$$     $$$$$$$ $$$$$$$$$                           ",
"                ++=         ++++++++% *$$$$$$$$   +++++++++++++@.#$$$$$$$$$$$$$   $$$$$$$$$ $$$$$$$$$         $$$               ",
"            ++++++- ;$      ++++++++% *$$$$$>,'*  )++++++++++++@.#$$$$$$$$$$$$$  $$$$$$$$$$ $$$$$$$$$      $$$$$$$$$$           ",
"          ++++++++- ;$$     ++++++++% *>;!&~{   ]++++++++++++++@.#$$$$$$$$$$$$$$$   $$$$$$$ $$$$$$$$$     $$$ $$$$$$$$$         ",
"         +++++++++- ;$$$    ++++++++% ^'    /=((_++++++++++++++@.#$$$$$$$$$$$$$$$$$$$    $$ $$$$$$$$$    $$$$ $$$$$$$$$$        ",
"         +++++++++- ;$$$$   +++++++++: <==([+++++++++++++++++++@.#$$$$$$$$$$$$$$$$$$$$$$$$ $$$$$$$$$$   $$$$$ $$$$$$$$$$        ",
"         +++++++++- ;$$$,'  )++++++++)[++++++++++++++++++++++++@.#$$$$$$$$$$$$$$$$$$$$$$$$$$$$$$$$$$$  $$$$$$ $$$$$$$$$$        ",
"         +++++++++} &|&12   )++++++++++++++++++++++++++++++++++@.#$$$$$$$$$$$$$$$$$$$$$$$$$$$$$$$$$$$   $$$$$ $$$$$$$$$$        ",
"         +++++++++%    3%<-++++++++++++++++++++++++++++++++++++@.#$$$$$$$$$$$$$$$$$$$$$$$$$$$$$$$$$$$$$$$$    $$$$$$$$$$        ",
"         ++++++++++45(_6+++++++++++++++++++++++++++++++++++++++@.#$$$$$$$$$$$$$$$$$$$$$$$$$$$$$$$$$$$$$$$$$$$$$$$$$$$$$$        ",
"         ++++++++++++++++++++++++++++++++++++++++++++++++++++++@.#$$$$$$$$$$$$$$$$$$$$$$$$$$$$$$$$$$$$$$$$$$$$$$$$$$$$$$        ",
"         ++++++++++++++++++++++++++++++++++++++++++++++++++++++@.#$$$$$$$$$$$$$$$$$$$$$$$$$$$$$$$$$$$$$$$$$$$$$$$$$$$$$$        ",
"         ++++++++++++++++++++++++++++++++++++++++++++++++++++++@.#$$$$$$$$$$$$$$$$$$$$$$$$$$$$$$$$$$$$$$$$$$$$$$$$$$$$$$        ",
"         ++++++++++++++++++++++++++++++++++++++++++++++++++++++@.#$$$$$$$$$$$$$$$$$$$$$$$$$$$$$$$$$$$$$$$$$$$$$$$$$$$$$$        ",
"         ++++++++++++++++++++++++++++++++++++++++++++++++++++++@.#$$$$$$$$$$$$$$$$$$$$$$$$$$$$$$$$$$$$$$$$$$$$$$$$$$$$$$        ",
"         ++++++++++++++++++++++++++++++++++++++++++++++++++++++@.#$$$$$$$$$$$$$$$$$$$$$$$$$$$$$$$$$$$$$$$$$$$$$$$$$$$$$$        ",
"         ++++++++++++++++++++++++++++++++++++++++++++++++++++++@.#$$$$$$$$$$$$$$$$$$$$$$$$$$$$$$$$$$$$$$$$$$$$$$$$$$$$$$        ",
"         ++++++++++++++++++++++++++++++++++++++++++++++++++++++@.#$$$$$$$$$$$$$$$$$$$$$$$$$$$$$$$$$$$$$$$$$$$$$$$$$$$$$$        ",
"         ++++++++++++++++++++++++++++++++++++++++++++++++++++++@.#$$$$$$$$$$$$$$$$$$$$$$$$$$$$$$$$$$$$$$$$$$$$$$$$$$$$$$        ",
"         ++++++++++++++++++++++++++++++++++++++++++++++++++++++@.#$$$$$$$$$$$$$$$$$$$$$$$$$$$$$$$$$$$$$$$$$$$$$$$$$$$$$$        ",
"         ++++++++++++++++++++++++++++++++++++++++++++++++++++++@.#$$$$$$$$$$$$$$$$$$$$$$$$$$$$$$$$$$$$$$$$$$$$$$$$$$$$$$        ",
"         ++++++++++++++++++++++++++++++++++++++++++++++++++++++@.#$$$$$$$$$$$$$$$$$$$$$$$$$$$$$$$$$$$$$$$$$$$$$$$$$$$$$$        ",
"         ++++++++++++++++++++++++++++++++++++++++++++++++++++++@ &$$$$$$$$$$$$$$$$$$$$$$$$$$$$$$$$$$$$$$$$$$$$$$$$$$$$$$        ",
"         ++++++++++++++++++++++++++++++++++++++++++++++++++++++@.&$$$$$$$$$$$$$$$$$$$$$$$$$$$$$$$$$$$$$$$$$$$$$$$$$$$$$$        ",
"         ++++++++++++++++++++++++++++++++++++++++++++++++++++++@.#$$$$$$$$$$$$$$$$$$$$$$$$$$$$$$$$$$$$$$$$$$$$$$$$$$$$$$        ",
"         ++++++++++++++++++++++++++++++++++++++++++++++++++++++@.#$$$$$$$$$$$$$$$$$$$$$$$$$$$$$$$$$$$$$$$$$$$$$$$$$$$$$$        ",
"         ++++++++++++++++++++++++++++++++++++++++++++++++++++++@.#$$$$$$$$$$$$$$$$$$$$$$$$$$$$$$$$$$$$$$$$$$$$$$$$$$$$$$        ",
"         ++++++++++++++++++++++++++++++++++++++++++++++++++++++@.#$$$$$$$$$$$$$$$$$$$$$$$$$$$$$$$$$$$$$$$$$$$$$$$$$$$$$$        ",
"         ++++++++++++++++++++++++++++++++++++++++++++++++++++++@.#$$$$$$$$$$$$$$$$$$$$$$$$$$$$$$$$$$$$$$$$$$$$$$$$$$$$$$        ",
"         ++++++++++++++++++++++++++++++++++++++++++++++++++++++@.#$$$$$$$$$$$$$$$$$$$$$$$$$$$$$$$$$$$$$$$$$$$$$$$$$$$$$$        ",
"         ++++++++++++++++++++++++++++++++++++++++++++++++++++++@.#$$$$$$$$$$$$$$$$$$$$$$$$$$$$$$$$$$$$$$$$$$$$$$$$$$$$$$        ",
"          +++++++++++++++++++++++++++++++++++++++++++++++++++++@.#$$$$$$$$$$$$$$$$$$$$$$$$$$$$$$$$$$$$$$$$$$$$$$$$$$$$$$        ",
"         ++++++++++++++++++++++++++++++++++++++++++++++++++++++@.#$$$$$$$$$$$$$$$$$$$$$$$$$$$$$$$$$$$$$$$$$$$$$$$$$$$$$$        ",
"         ++++++++++++++++++++++++++++++++++++++++++++++++++++++@.#$$$$$$$$$$$$$$$$$$$$$$$$$$$$$$$$$$$$$$$$$$$$$$$$$$$$$$        ",
"         ++++++++++++++++++++++++++++++++++++++++++++++++++++++@.#$$$$$$$$$$$$$$$$$$$$$$$$$$$$$$$$$$$$$$$$$$$$$$$$$$$$$$        ",
"         ++++++++++++++++++++++++++++++++++++++++++++++++++++++@.#$$$$$$$$$$$$$$$$$$$$$$$$$$$$$$$$$$$$$$$$$$$$$$$$$$$$$$        ",
"         ++++++++++++++++++++++++++++++++++++++++++++++++++++++@.#$$$$$$$$$$$$$$$$$$$$$$$$$$$$$$$$$$$$$$$$$$$$$$$$$$$$$$        ",
"         ++++++++++++++++++++++++++++++++++++++++++++++++++++++@.#$$$$$$$$$$$$$$$$$$$$$$$$$$$$$$$$$$$$$$$$$$$$$$$$$$$$$$        ",
"         ++++++++++++++++++++++++++++++++++++++++++++++++++++++@.#$$$$$$$$$$$$$$$$$$$$$$$$$$$$$$$$$$$$$$$$$$$$$$$$$$$$$$        ",
"         ++++++++++++++++++++++++++++++++++++++++++++++++++++++@.#$$$$$$$$$$$$$$$$$$$$$$$$$$$$$$$$$$$$$$$$$$$$$$$$$$$$$$        ",
"         ++++++++++++++++++++++++++++++++++++++++++++++++++++++@.#$$$$$$$$$$$$$$$$$$$$$$$$$$$$$$$$$$$$$$$$$$$$$$$$$$$$$$        ",
"         ++++++++++++++++++++++++++++++++++++++++++++++++++++++@.#$$$$$$$$$$$$$$$$$$$$$$$$$$$$$$$$$$$$$$$$$$$$$$$$$$$$$$        ",
"         ++++++++++++++++++++++++++++++++++++++++++++++++++++++@.#$$$$$$$$$$$$$$$$$$$$$$$$$$$$$$$$$$$$$$$$$$$$$$$$$$$$$$        ",
"         ++++++++++++++++++++++++++++++++++++++++++++++++++++++@.#$$$$$$$$$$$$$$$$$$$$$$$$$$$$$$$$$$$$$$$$$$$$$$$$$$$$$$        ",
"         ++++++++++++++++++++++++++++++++++++++++++++++++++++++@.#$$$$$$$$$$$$$$$$$$$$$$$$$$$$$$$$$$$$$$$$$$$$$$$$$$$$$$        ",
"         ++++++++++++++++++++++++++++++++++++++++++++++++++++++@.#$$$$$$$$$$$$$$$$$$$$$$$$$$$$$$$$$$$$$$$$$$$$$$$$$$$$$$        ",
"         ++++++++++++++++++++++++++++++++++++++++++++++++++++++@.#$$$$$$$$$$$$$$$$$$$$$$$$$$$$$$$$$$$$$$$$$$$$$$$$$$$$$$        ",
"         ++++++++++++++++++++++++++++++++++++++++++++++++++++++@.#$$$$$$$$$$$$$$$$$$$$$$$$$$$$$$$$$$$$$$$$$$$$$$$$$$$$$$        ",
"         ++++++++++++++++++++++++++++++++++++++++++++++++++++++@.#$$$$$$$$$$$$$$$$$$$$$$$$$$$$$$$$$$$$$$$$$$$$$$$$$$$$$$        ",
"         ++++++++++++++++++++++++++++++++++++++++++++++++++++++@.#$$$$$$$$$$$$$$$$$$$$$$$$$$$$$$$$$$$$$$$$$$$$$$$$$$$$$$        ",
"         ++++++++++++++++++++++++++++++++++++++++++++++++++++++@.#$$$$$$$$$$$$$$$$$$$$$$$$$$$$$$$$$$$$$$$$$$$$$$$$$$$$$$        ",
"         ++++++++++++++++++++++++++++++++++++++++++++++++++++++@.#$$$$$$$$$$$$$$$$$$$$$$$$$$$$$$$$$$$$$$$$$$$$$$$$$$$$$$        ",
"         ++++++++++++++++++++++++++++++++++++++++++++++++++++++@.#$$$$$$$$$$$$$$$$$$$$$$$$$$$$$$$$$$$$$$$$$$$$$$$$$$$$$$        ",
"         ++++++++++++++++++++++++++++++++++++++++++++++++++++++@.#$$$$$$$$$$$$$$$$$$$$$$$$$$$$$$$$$$$$$$$$$$$$$$$$$$$$$$        ",
"         ++++++++++++++++++++++++++++++++++++++++++++++++++++++@.#$$$$$$$$$$$$$$$$$$$$$$$$$$$$$$$$$$$$$$$$$$$$$$$$$$$$$$        ",
"         ++++++++++++++++++++++++++++++++++++++++++++++++++++++@.#$$$$$$$$$$$$$$$$$$$$$$$$$$$$$$$$$$$$$$$$$$$$$$$$$$$$$$        ",
"         ++++++++++++++++++++++++++++++++++++++++++++++++++++++@.#$$$$$$$$$$$$$$$$$$$$$$$$$$$$$$$$$$$$$$$$$$$$$$$$$$$$$$        ",
"         ++++++++++++++++++++++++++++++++++++++++++++++++++++++@.#$$$$$$$$$$$$$$$$$$$$$$$$$$$$$$$$$$$$$$$$$$$$$$$$$$$$$$        ",
"         ++++++++++++++++++++++++++++++++++++++++++++++++++++++@.#$$$$$$$$$$$$$$$$$$$$$$$$$$$$$$$$$$$$$$$$$$$$$$$$$$$$$$        ",
"         ++++++++++++++++++++++++++++++++++++++++++++++++++++++@.#$$$$$$$$$$$$$$$$$$$$$$$$$$$$$$$$$$$$$$$$$$$$$$$$$$$$$$        ",
"         ++++++++++++++++++++++++++++++++++++++++++++++++++++++@.#$$$$$$$$$$$$$$$$$$$$$$$$$$$$$$$$$$$$$$$$$$$$$$$$$$$$$$        ",
"         ++++++++++++++++++++++++++++++++++++++++++++++++++++++@.#$$$$$$$$$$$$$$$$$$$$$$$$$$$$$$$$$$$$$$$$$$$$$$$$$$$$$$        ",
"         ++++++++++++++++++++++++++++++++++++++++++++++++++++++@.#$$$$$$$$$$$$$$$$$$$$$$$$$$$$$$$$$$$$$$$$$$$$$$$$$$$$$$        ",
"         ++++++++++++++++++++++++++++++++++++++++++++++++++++++@.#$$$$$$$$$$$$$$$$$$$$$$$$$$$$$$$$$$$$$$$$$$$$$$$$$$$$$$        ",
"         ++++++++++++++++++++++++++++++++++++++++++++++++++++++@.#$$$$$$$$$$$$$$$$$$$$$$$$$$$$$$$$$$$$$$$$$$$$$$$$$$$$$$        ",
"         ++++++++++++++++++++++++++++++++++++++++++++++++++++++@.#$$$$$$$$$$$$$$$$$$$$$$$$$$$$$$$$$$$$$$$$$$$$$$$$$$$$$$        ",
"         ++++++++++++++++++++++++++++++++++++++++++++++++++++++@.#$$$$$$$$$$$$$$$$$$$$$$$$$$$$$$$$$$$$$$$$$$$$$$$$$$$$$$        ",
"         ++++++++++++++++++++++++++++++++++++++++++++++++++++++@.#$$$$$$$$$$$$$$$$$$$$$$$$$$$$$$$$$$$$$$$$$$$$$$$$$$$$$$        ",
"         ++++++++++++++++++++++++++++++++++++++++++++++++++++++@.#$$$$$$$$$$$$$$$$$$$$$$$$$$$$$$$$$$$$$$$$$$$$$$$$$$$$$$        ",
"         ++++++++++++++++++++++++++++++++++++++++++++++++++++++@.#$$$$$$$$$$$$$$$$$$$$$$$$$$$$$$$$$$$$$$$$$$$$$$$$$$$$$$        ",
"         ++++++++++++++++++++++++++++++++++++++++++++++++++++++@.#$$$$$$$$$$$$$$$$$$$$$$$$$$$$$$$$$$$$$$$$$$$$$$$$$$$$$$        ",
"         ++++++++++++++++++++++++++++++++++++++++++++++++++++++@.#$$$$$$$$$$$$$$$$$$$$$$$$$$$$$$$$$$$$$$$$$$$$$$$$$$$$$$        ",
"         ++++++++++++++++++++++++++++++++++++++++++++++++++++++@.#$$$$$$$$$$$$$$$$$$$$$$$$$$$$$$$$$$$$$$$$$$$$$$$$$$$$$$        ",
"         ++++++++++++++++++++++++++++++++++++++++++++++++++++++@.#$$$$$$$$$$$$$$$$$$$$$$$$$$$$$$$$$$$$$$$$$$$$$$$$$$$$$$        ",
"         ++++++++++++++++++++++++++++++++++++++++++++++++++++++@.#$$$$$$$$$$$$$$$$$$$$$$$$$$$$$$$$$$$$$$$$$$$$$$$$$$$$$$        ",
"         ++++++++++++++++++++++++++++++++++++++++++++++++++++++@.#$$$$$$$$$$$$$$$$$$$$$$$$$$$$$$$$$$$$$$$$$$$$$$$$$$$$$$        ",
"         ++++++++++++++++++++++++++++++++++++++++++++++++++++++@.#$$$$$$$$$$$$$$$$$$$$$$$$$$$$$$$$$$$$$$$$$$$$$$$$$$$$$$        ",
"         ++++++++++++++++++++++++++++++++++++++++++++++++++++++@.#$$$$$$$$$$$$$$$$$$$$$$$$$$$$$$$$$$$$$$$$$$$$$$$$$$$$$$        ",
"          +++++++++++++++++++++++++++++++++++++++++++++++++++++@.#$$$$$$$$$$$$$$$$$$$$$$$$$$$$$$$$$$$$$$$$$$$$$$$$$$$$$         ",
"           ++++++++++++++++++++++++++++++++++++++++++++++++++++@.#$$$$$$$$$$$$$$$$$$$$$$$$$$$$$$$$$$$$$$$$$$$$$$$$$$$$          ",
"            +++++++++++++++++++++++++++++++++++++++++++++++++++@.#$$$$$$$$$$$$$$$$$$$$$$$$$$$$$$$$$$$$$$$$$$$$$$$$$$$           ",
"              +++++++++++++++++++++++++++++++++++++++++++++++++@.#$$$$$$$$$$$$$$$$$$$$$$$$$$$$$$$$$$$$$$$$$$$$$$$$$             ",
"                +++++++++++++++++++++++++++++++++++++++++++++++@.#$$$$$$$$$$$$$$$$$$$$$$$$$$$$$$$$$$$$$$$$$$$$$$$$              ",
"                 ++++++++++++++++++++++++++++++++++++++++++++++@.#$$$$$$$$$$$$$$$$$$$$$$$$$$$$$$$$$$$$$$$$$$$$$$                ",
"                   ++++++++++++++++++++++++++++++++++++++++++++@.#$$$$$$$$$$$$$$$$$$$$$$$$$$$$$$$$$$$$$$$$$$$$                  ",
"                    +++++++++++++++++++++++++++++++++++++++++++@.#$$$$$$$$$$$$$$$$$$$$$$$$$$$$$$$$$$$$$$$$$$$                   ",
"                      +++++++++++++++++++++++++++++++++++++++++@.#$$$$$$$$$$$$$$$$$$$$$$$$$$$$$$$$$$$$$$$$$                     ",
"                        +++++++++++++++++++++++++++++++++++++++@.#$$$$$$$$$$$$$$$$$$$$$$$$$$$$$$$$$$$$$$$                       ",
"                         ++++++++++++++++++++++++++++++++++++++@.#$$$$$$$$$$$$$$$$$$$$$$$$$$$$$$$$$$$$$$                        ",
"                           ++++++++++++++++++++++++++++++++++++@.#$$$$$$$$$$$$$$$$$$$$$$$$$$$$$$$$$$$$                          ",
"                             ++++++++++++++++++++++++++++++++++@.#$$$$$$$$$$$$$$$$$$$$$$$$$$$$$$$$$$                            ",
"                              +++++++++++++++++++++++++++++++++@.#$$$$$$$$$$$$$$$$$$$$$$$$$$$$$$$$$                             ",
"                                +++++++++++++++++++++++++++++++@.#$$$$$$$$$$$$$$$$$$$$$$$$$$$$$$$                               ",
"                                  +++++++++++++++++++++++++++++@.#$$$$$$$$$$$$$$$$$$$$$$$$$$$$$                                 ",
"                                   ++++++++++++++++++++++++++++@.#$$$$$$$$$$$$$$$$$$$$$$$$$$$$                                  ",
"                                     ++++++++++++++++++++++++++@.#$$$$$$$$$$$$$$$$$$$$$$$$$$                                    ",
"                                      +++++++++++++++++++++++++@.#$$$$$$$$$$$$$$$$$$$$$$$$$                                     ",
"                                        +++++++++++++++++++++++@.#$$$$$$$$$$$$$$$$$$$$$$$                                       ",
"                                          +++++++++++++++++++++@.#$$$$$$$$$$$$$$$$$$$$$                                         ",
"                                           ++++++++++++++++++++@.#$$$$$$$$$$$$$$$$$$$$                                          ",
"                                             ++++++++++++++++++@.#$$$$$$$$$$$$$$$$$$                                            ",
"                                               ++++++++++++++++@.#$$$$$$$$$$$$$$$$                                              ",
"                                                +++++++++++++++@.#$$$$$$$$$$$$$$$                                               ",
"                                                  +++++++++++++@.#$$$$$$$$$$$$$                                                 ",
"                                                    +++++++++++@.#$$$$$$$$$$$                                                   ",
"                                                     ++++++++++@.#$$$$$$$$$$                                                    ",
"                                                       ++++++++@.#$$$$$$$$                                                      ",
"                                                        +++++++@.#$$$$$$$                                                       ",
"                                                          +++++@.#$$$$$                                                         ",
"                                                            +++@.#$$$                                                           ",
"                                                             ++@.&$$                                                            ",
"                                                               % '                                                              ",
"                                                                                                                                "};
