/* XPM */
static char * C:\Users\Admin\Desktop\Bulwark_master\Bulwark_master\share\pixmaps\bitcoin16_xpm[] = {
"16 16 24 1",
" 	c None",
".	c #3D6DAF",
"+	c #2C5380",
"@	c #3F6FB4",
"#	c #2B507C",
"$	c #294E78",
"%	c #4173BA",
"&	c #3864A0",
"*	c #3D6DB0",
"=	c #335D93",
"-	c #3F71B7",
";	c #3F70B4",
">	c #2A4F7A",
",	c #3F70B6",
"'	c #3E6FB3",
")	c #3D6EB1",
"!	c #4071B7",
"~	c #4172B9",
"{	c #4071B6",
"]	c #3F6FB3",
"^	c #3F70B5",
"/	c #3F71B6",
"(	c #3F6FB2",
"_	c #2B507D",
"       .+       ",
"       @#$      ",
" %& *=-;#$>> >> ",
" ,')!~{]#$>>>>> ",
" ^,,^^/@#$>>>>> ",
" ^^^^^{]#$>>>>> ",
" ^^^^^{]#$>>>>> ",
" ^^^^^{]#$>>>>> ",
" ^^^^^{]#$>>>>> ",
" ^^^^^{]#$>>>>> ",
" ^^^^^{]#$>>>>> ",
"  ^^^^{]#$>>>>> ",
"   ^^^{]#$>>>   ",
"     ^{]#$>     ",
"       (_$      ",
"                "};
